<svg id="Layer_1" data-name="Layer 1" xmlns="http://www.w3.org/2000/svg" viewBox="0 0 500 500"><title>21. Approved</title><polygon points="212.94 239.77 256.18 276.5 343.87 164.59 374.12 189.29 259.29 322.29 189.29 265.96 212.94 239.77" fill="#3fe2fd"/><path d="M264.67,271.82a12.53,12.53,0,0,1-17.77,1.91l-34.77-28.51-14.06,19.11,52.72,42.05a9.44,9.44,0,0,0,13.25-1.5l95.3-119.52L345,170.44Z" fill="none"/><path d="M264.47,69c-96,0-174.17,78.13-174.17,174.17s78.13,174.17,174.17,174.17,174.17-78.13,174.17-174.17S360.51,69,264.47,69Zm10.73,74,14.19-23.78a7,7,0,1,1,12,7.17l-14.19,23.78a7,7,0,1,1-12-7.17Zm-52.37-26.5a7,7,0,0,1,8.72,4.67l8,26.52a7,7,0,0,1-4.67,8.73,7.13,7.13,0,0,1-2,.3,7,7,0,0,1-6.7-5l-8-26.53A7,7,0,0,1,222.83,116.51Zm-63.22,51.84a7,7,0,0,1,9.54-2.63l24.95,14.17a7,7,0,1,1-6.92,12.17L162.24,177.9A7,7,0,0,1,159.61,168.35Zm214.51,20.94L275,313.61a23.31,23.31,0,0,1-15.69,8.68,23.89,23.89,0,0,1-2.67.15,23.24,23.24,0,0,1-14.55-5.12l-58-46.24a7,7,0,0,1-1.27-9.62L205.22,231a7,7,0,0,1,10.08-1.26L254.62,262,339,155.48a7,7,0,0,1,10.53-.52l24.2,25.1A7,7,0,0,1,374.12,189.29Z" fill="none"/><path d="M264.47,55C160.71,55,76.3,139.39,76.3,243.15s84.41,188.17,188.17,188.17,188.17-84.41,188.17-188.17S368.23,55,264.47,55Zm0,362.34c-96,0-174.17-78.13-174.17-174.17S168.43,69,264.47,69s174.17,78.13,174.17,174.17S360.51,417.32,264.47,417.32Z" fill="#251ac7"/><path d="M349.48,155a7,7,0,0,0-10.53.52L254.62,262,215.3,229.72A7,7,0,0,0,205.22,231l-22.41,30.48a7,7,0,0,0,1.27,9.62l58,46.24a23.24,23.24,0,0,0,14.55,5.12,23.89,23.89,0,0,0,2.67-.15A23.31,23.31,0,0,0,275,313.61l99.14-124.32a7,7,0,0,0-.44-9.23ZM264,304.88a9.44,9.44,0,0,1-13.25,1.5l-52.72-42.05,14.06-19.11,34.77,28.51a12.53,12.53,0,0,0,17.77-1.91L345,170.44l14.38,14.92Z" fill="#251ac7"/><path d="M190.64,193a7,7,0,0,0,3.46-13.09l-24.95-14.17a7,7,0,0,0-6.91,12.18l24.94,14.16A7,7,0,0,0,190.64,193Z" fill="#251ac7"/><path d="M277.63,152.61a7,7,0,0,0,9.59-2.43l14.19-23.78a7,7,0,1,0-12-7.17L275.2,143A7,7,0,0,0,277.63,152.61Z" fill="#251ac7"/><path d="M226.17,151.76a7,7,0,0,0,6.7,5,7.13,7.13,0,0,0,2-.3,7,7,0,0,0,4.67-8.73l-8-26.52a7,7,0,0,0-13.4,4Z" fill="#251ac7"/></svg>