<svg xmlns="http://www.w3.org/2000/svg" viewBox="0 0 500 500"><title>17. Business</title><g id="Layer_14" data-name="Layer 14"><path d="M107.36,150.8v98s4.5,10.14,14.64,12.39,217.36,9,217.36,9l-229.75,7.88V380.55s4.51,18,18,19.15,280.43,0,280.43,0l-6.75,12.39L91.59,413.21l-5.63-18L83.71,276.94l-9-20.28V145.17Z" fill="#3fe2fd"/></g><g id="Layer_11" data-name="Layer 11"><path d="M246.62,91.13a70.83,70.83,0,0,0-66.32,46.2H312.94A70.82,70.82,0,0,0,246.62,91.13Z" fill="none"/><path d="M419,400.53V280a24,24,0,0,0,10.23-19.64V144.33a7,7,0,0,0-7-7H327.7a84.7,84.7,0,0,0-162.16,0H77.8a7,7,0,0,0-7,7V260.39A24,24,0,0,0,81,280V400.53a22.36,22.36,0,0,0,22.34,22.34H396.63A22.36,22.36,0,0,0,419,400.53Zm-3.77-249.2V260.39a10,10,0,0,1-10,10H335.66V244.28a7,7,0,0,0-14,0v26.11H175.17V244.28a7,7,0,0,0-14,0v26.11H94.8a10,10,0,0,1-10-10V151.33ZM95,400.53V284.39h66.16v9.2H147.34a7,7,0,0,0-7,7v38.85a7,7,0,0,0,7,7h42.23a7,7,0,0,0,7-7V300.59a7,7,0,0,0-7-7h-14.4v-9.2H321.66v9.2h-15.8a7,7,0,0,0-7,7v38.85a7,7,0,0,0,7,7h42.23a7,7,0,0,0,7-7V300.59a7,7,0,0,0-7-7H335.66v-9.2H405V400.53a8.35,8.35,0,0,1-8.34,8.34H103.35A8.35,8.35,0,0,1,95,400.53Zm59.33-92.94h28.23v24.85H154.34Zm158.52,0h28.23v24.85H312.86ZM246.62,91.13a70.82,70.82,0,0,1,66.32,46.2H180.3A70.83,70.83,0,0,1,246.62,91.13Z" fill="#251ac7"/></g></svg>