<svg xmlns="http://www.w3.org/2000/svg" viewBox="0 0 500 500"><g id="Layer_10" data-name="Layer 10"><path d="M109.84,50.69S87.65,118,122.38,154.93v43.73s-46.42,3.58-48,41.24l-11.92,6.42-12.33-9.48-9.8-29,24.85-18.4,41.54-12.25,1-19.41s-30.3-16-29.28-51.74S89.41,54.49,109.84,50.69Z" fill="#3fe2fd"/><circle cx="360.84" cy="360.07" r="60.3" fill="#3fe2fd"/></g><g id="Layer_3" data-name="Layer 3"><path d="M410.06,242.51a7,7,0,0,1-3.66-1l-33-20.27a7,7,0,1,1,7.33-11.93l25.12,15.43L413.46,198a7,7,0,0,1,13.47,3.84l-10.14,35.6a7,7,0,0,1-6.73,5.08Z" fill="#251ac7"/><path d="M57.13,317.46a7,7,0,0,1-5.91-10.74L71,275.44a7,7,0,0,1,11.12-.95L108,303.26a7,7,0,0,1-10.4,9.37L77.9,290.72,63.05,314.2A7,7,0,0,1,57.13,317.46Z" fill="#251ac7"/><path d="M358.79,467.17a107.6,107.6,0,1,1,107.6-107.6A107.72,107.72,0,0,1,358.79,467.17Zm0-201.2a93.6,93.6,0,1,0,93.6,93.6A93.71,93.71,0,0,0,358.79,266Z" fill="#251ac7"/><path d="M362,394.78h-3.95a20.55,20.55,0,0,1-20.53-20.53,7,7,0,0,1,14,0,6.54,6.54,0,0,0,6.53,6.53H362a6.54,6.54,0,0,0,6.53-6.53v-2.53a6.54,6.54,0,0,0-6.53-6.54h-3.95a20.55,20.55,0,0,1-20.53-20.53v-2.53a20.56,20.56,0,0,1,20.53-20.54h5.36A20.56,20.56,0,0,1,384,342.12v1.69a7,7,0,0,1-14,0v-1.69a6.54,6.54,0,0,0-6.53-6.54h-5.36a6.54,6.54,0,0,0-6.53,6.54v2.53a6.54,6.54,0,0,0,6.53,6.53H362a20.56,20.56,0,0,1,20.53,20.54v2.53A20.55,20.55,0,0,1,362,394.78Z" fill="#251ac7"/><path d="M360.74,335.58a7,7,0,0,1-7-7V315.9a7,7,0,0,1,14,0v12.68A7,7,0,0,1,360.74,335.58Z" fill="#251ac7"/><path d="M360.74,407.47a7,7,0,0,1-7-7v-7.14a7,7,0,1,1,14,0v7.14A7,7,0,0,1,360.74,407.47Z" fill="#251ac7"/><path d="M128.88,207.87a28.05,28.05,0,0,1-28-28V161.53a6.6,6.6,0,0,1,13.2,0v18.32a14.82,14.82,0,1,0,29.64,0V161.53a6.6,6.6,0,1,1,13.2,0v18.32A28.05,28.05,0,0,1,128.88,207.87Z" fill="#251ac7"/><path d="M128,168.53A58.6,58.6,0,0,1,69.42,110V91.36a58.54,58.54,0,0,1,117.07,0V110A58.6,58.6,0,0,1,128,168.53Zm0-121.7A44.57,44.57,0,0,0,83.42,91.36V110a44.54,44.54,0,0,0,89.07,0V91.36A44.58,44.58,0,0,0,128,46.83Z" fill="#251ac7"/><path d="M190.79,253.9H67.6A33.89,33.89,0,0,1,41.83,198a74.93,74.93,0,0,1,56.82-26.06,7,7,0,0,1,0,14,61,61,0,0,0-46.22,21.2A19.89,19.89,0,0,0,67.6,239.9H190.79a19.49,19.49,0,0,0,18.12-11.66,19.28,19.28,0,0,0-3-21.12,61,61,0,0,0-46.22-21.2,7,7,0,0,1,0-14A75,75,0,0,1,216.56,198a33.89,33.89,0,0,1-25.77,55.92Z" fill="#251ac7"/><path d="M244.2,444.43A174.84,174.84,0,0,1,69.94,283.76a7,7,0,1,1,14-1.12C90.54,365.51,161,430.43,244.2,430.43a7,7,0,0,1,0,14Z" fill="#251ac7"/><path d="M407.28,236.84a7,7,0,0,1-6.8-5.35A160.34,160.34,0,0,0,244.2,108.78a162.26,162.26,0,0,0-33.11,3.41,7,7,0,0,1-2.86-13.7,175.94,175.94,0,0,1,36-3.71,172.94,172.94,0,0,1,108.82,38,175.61,175.61,0,0,1,61.06,95.4,7,7,0,0,1-5.15,8.46A7.23,7.23,0,0,1,407.28,236.84Z" fill="#251ac7"/></g></svg>