<svg xmlns="http://www.w3.org/2000/svg" viewBox="0 0 500 500"><title>20. Target</title><g id="Layer_9" data-name="Layer 9"><circle cx="251.52" cy="249.11" r="22.19" fill="#3fe2fd"/><path d="M251.49,140.71A109.22,109.22,0,1,0,360.71,249.93,109.22,109.22,0,0,0,251.49,140.71Zm0,177a67.77,67.77,0,1,1,67.76-67.77A67.77,67.77,0,0,1,251.49,317.7Z" fill="#3fe2fd"/></g><g id="Layer_3" data-name="Layer 3"><path d="M250,145.28a104.71,104.71,0,1,0,98.17,68.26L319.1,226.61a73.16,73.16,0,1,1-5.76-12.76l29.07-13.07A104.82,104.82,0,0,0,250,145.28Z" fill="none"/><path d="M250,191a59,59,0,1,0,56.27,41.34L282.19,243.2a33,33,0,1,1-5.76-12.76l24.08-10.83A59,59,0,0,0,250,191Z" fill="none"/><path d="M247.13,243.61l16-7.18A18.88,18.88,0,1,0,268.9,250c0-.27,0-.53,0-.8l-16,7.18a7,7,0,0,1-5.74-12.77Z" fill="none"/><path d="M361,207.79A119,119,0,1,1,355.2,195l21.87-9.84,4.57-14A153.55,153.55,0,0,0,250,96.51C165.37,96.51,96.51,165.37,96.51,250S165.37,403.49,250,403.49,403.49,334.63,403.49,250a153.19,153.19,0,0,0-6.19-43.18l-18-7.28Z" fill="none"/><path d="M495.33,175.79l-34.61-21.07,9.09-42.44a7,7,0,0,0-10.06-7.68l-65.32,33.79a7,7,0,0,0-3.44,4.05l-3.78,11.62A167.42,167.42,0,0,0,250,82.51C157.65,82.51,82.51,157.65,82.51,250S157.65,417.49,250,417.49,417.49,342.35,417.49,250a167.65,167.65,0,0,0-4.05-36.64l13.11,5.31a7.07,7.07,0,0,0,2.63.51,7,7,0,0,0,3.06-.71l62.51-30.4a7,7,0,0,0,.58-12.28Zm-66.52-6.18a7,7,0,0,0-9.26-3.52l-25.23,11.35,9.09-27.94L453,123.85l-7,32.8a7,7,0,0,0,3.2,7.45l27.91,17-48.18,23.44L397,191.59l28.31-12.73A7,7,0,0,0,428.81,169.61ZM403.49,250c0,84.63-68.86,153.49-153.49,153.49S96.51,334.63,96.51,250,165.37,96.51,250,96.51a153.55,153.55,0,0,1,131.64,74.64l-4.57,14L355.2,195A118,118,0,1,0,361,207.79l18.34-8.25,18,7.28A153.19,153.19,0,0,1,403.49,250Zm-159.87,2.87a7,7,0,0,0,9.25,3.51l16-7.18c0,.27,0,.53,0,.8a19,19,0,1,1-5.78-13.57l-16,7.18A7,7,0,0,0,243.62,252.87ZM250,217.1a32.9,32.9,0,1,0,32.19,26.1l24.08-10.83a59.11,59.11,0,1,1-5.76-12.76l-24.08,10.83A32.85,32.85,0,0,0,250,217.1ZM250,177a73,73,0,1,0,69.1,49.58l29.07-13.07a105,105,0,1,1-5.76-12.76l-29.07,13.07A73,73,0,0,0,250,177Z" fill="#251ac7"/></g></svg>