<svg xmlns="http://www.w3.org/2000/svg" viewBox="0 0 500 500"><title>44. Time Management </title><g id="Layer_2" data-name="Layer 2"><path d="M200,326S145.79,260,180.81,202.34c12.15-20,33.25-37.75,51.4-43.49,34.15-10.8,68.34,0,68.34,0s-54.22-39.91-111.45,11.3S165,308,200,326Z" fill="#3fe2fd"/></g><g id="Layer_1" data-name="Layer 1"><path d="M251.64,333.68A92.73,92.73,0,1,0,158.91,241,92.84,92.84,0,0,0,251.64,333.68ZM208.28,262.4l42-25.71V186a7,7,0,1,1,14,0v54.64a7,7,0,0,1-3.35,6l-45.38,27.75a7,7,0,0,1-7.3-11.94Z" fill="none"/><path d="M251.64,347.68A106.73,106.73,0,1,0,144.91,241,106.85,106.85,0,0,0,251.64,347.68Zm0-199.46A92.73,92.73,0,1,1,158.91,241,92.84,92.84,0,0,1,251.64,148.22Z" fill="#251ac7"/><path d="M99,332.74a7.09,7.09,0,0,0,3.4-.88,7,7,0,0,0,2.71-9.53A167.68,167.68,0,0,1,84,241c0-92.42,75.19-167.62,167.62-167.62a167,167,0,0,1,114.55,45.25l6.24,7.29-18.68-2.07a7,7,0,1,0-1.55,13.91l36.17,4a6.78,6.78,0,0,0,.77.05,7,7,0,0,0,7-6.86L397,95.53a7,7,0,0,0-14-.28l-.43,20.89-5.94-7c-.17-.19-.34-.38-.52-.55A180.93,180.93,0,0,0,251.64,59.33C151.49,59.33,70,140.81,70,241a181.68,181.68,0,0,0,22.81,88.19A7,7,0,0,0,99,332.74Z" fill="#251ac7"/><path d="M433.26,241a180,180,0,0,0-16.69-76.14,7,7,0,1,0-12.7,5.88A166.27,166.27,0,0,1,419.26,241c0,92.43-75.2,167.62-167.62,167.62a167.39,167.39,0,0,1-115.7-46.34l20.62-.1a7,7,0,0,0,0-14h0l-33.93.16a7,7,0,0,0-9.34,10.27l.21.24,3.46,36.38a7,7,0,0,0,7,6.34,5.17,5.17,0,0,0,.68,0,7,7,0,0,0,6.3-7.63L129,374.94a181.36,181.36,0,0,0,122.6,47.63C351.78,422.57,433.26,341.1,433.26,241Z" fill="#251ac7"/><path d="M211.94,275.37a6.94,6.94,0,0,0,3.64-1L261,246.59a7,7,0,0,0,3.35-6V186a7,7,0,1,0-14,0v50.71l-42,25.71a7,7,0,0,0,3.66,13Z" fill="#251ac7"/></g></svg>