<svg id="Layer_1" data-name="Layer 1" xmlns="http://www.w3.org/2000/svg" viewBox="0 0 500 500"><defs><style>.cls-1{fill:#24285b;}.cls-2{fill:#0086f4;}.cls-3{fill:#fff;}.cls-4{fill:#e2e2e2;}.cls-5{fill:#c3c7c9;}.cls-6{fill:#db2868;}.cls-7{fill:#f0457d;}</style></defs><title>Art Design</title><rect class="cls-1" x="29.75" y="107.82" width="433.51" height="307.54" rx="14.57"/><path class="cls-2" d="M15.56,395.49H485.23a0,0,0,0,1,0,0v9.11a17.8,17.8,0,0,1-17.8,17.8H33.36a17.8,17.8,0,0,1-17.8-17.8v-9.11a0,0,0,0,1,0,0Z"/><polygon class="cls-1" points="203.77 395.49 209.6 405.44 291.61 405.44 297.02 395.49 203.77 395.49"/><rect class="cls-3" x="42.17" y="125.5" width="406.98" height="258.98" rx="3.27"/><polygon class="cls-3" points="448.71 384.86 41.73 384.86 42.17 144.86 448.71 144.86 448.71 384.86"/><path class="cls-4" d="M100,72H400a3,3,0,0,1,3,3V385a0,0,0,0,1,0,0H97a0,0,0,0,1,0,0V75A3,3,0,0,1,100,72Z"/><path class="cls-5" d="M403,75a3,3,0,0,0-3-3H100a3,3,0,0,0-3,3v50H356a3,3,0,0,1,3,3V385h44Z"/><path class="cls-2" d="M100,56H400a3,3,0,0,1,3,3V96a0,0,0,0,1,0,0H97a0,0,0,0,1,0,0V59A3,3,0,0,1,100,56Z"/><path class="cls-3" d="M162,76.19a6.81,6.81,0,1,1-6.81-6.81A6.81,6.81,0,0,1,162,76.19Z"/><path class="cls-3" d="M120.75,76.19a6.81,6.81,0,1,1-6.81-6.81A6.81,6.81,0,0,1,120.75,76.19Z"/><path class="cls-3" d="M140.55,76.19a6.81,6.81,0,1,1-6.81-6.81A6.81,6.81,0,0,1,140.55,76.19Z"/><rect class="cls-6" x="138" y="159" width="224" height="71" rx="3"/><circle class="cls-7" cx="250.26" cy="301.54" r="28.54"/><path class="cls-7" d="M256.64,273.72A28.54,28.54,0,0,1,230.35,322a28.54,28.54,0,1,0,26.29-48.27Z"/><circle class="cls-7" cx="167" cy="301.34" r="28.54"/><path class="cls-7" d="M173.38,273.52a28.53,28.53,0,0,1-26.29,48.26,28.54,28.54,0,1,0,26.29-48.26Z"/><circle class="cls-7" cx="333" cy="301.34" r="28.54"/><path class="cls-7" d="M339.38,273.52a28.53,28.53,0,0,1-26.29,48.26,28.54,28.54,0,1,0,26.29-48.26Z"/><rect class="cls-7" x="138" y="159" width="199" height="60" rx="3"/></svg>